# xmcd CD database file
# Copyright (C) 1993-1998 Ti Kan
# 
# Track frame offsets:
#     150
#     13377
#     27507
#     38627
#     49615
#     65565
#     78045
#     87760
#     101700
#     112175
#     124997
#     136040
#     147205
# 
# Disc length: 2134 seconds
# 
# Revision: 1
# Processed by: cddbd v1.4b41PL1 Copyright (c) Steve Scherf et al.
# Submitted via: DiscPlay 4.0.4
# 
DISCID=ae08540d
DTITLE=Leon Redbone - Sugar
DYEAR=1900
DGENRE=
TTITLE0=Ghost Of The St. Louis Blues
TTITLE1=Roll Along Kentucky Moon
TTITLE2=Right Or Wrong
TTITLE3=Laughin' Blues
TTITLE4=Breeze
TTITLE5=The Whistling Colonel
TTITLE6=Sugar
TTITLE7=Pretty Baby
TTITLE8=When I Take My Sugar To Tea
TTITLE9=What You Want Me To Do
TTITLE10=Messin' Around
TTITLE11=So, Relax
TTITLE12=14th Street Blues
EXTD=
EXTT0=
EXTT1=
EXTT2=
EXTT3=
EXTT4=
EXTT5=
EXTT6=
EXTT7=
EXTT8=
EXTT9=
EXTT10=
EXTT11=
EXTT12=
PLAYORDER=
